<svg width="24" height="24" viewBox="0 0 24 24" fill="none" xmlns="http://www.w3.org/2000/svg">
<g id="Frame 8981">
<g id="Group">
<path id="Vector" d="M17.6667 3C15.2813 3 13.3333 4.94855 13.3333 7.33456C13.3333 9.72057 15.2813 11.6691 17.6667 11.6691C20.052 11.6691 22 9.72057 22 7.33456C22 4.94855 20.052 3 17.6667 3ZM17.6667 4.33371C19.3314 4.33371 20.6667 5.66934 20.6667 7.33456C20.6667 8.99978 19.3314 10.3354 17.6667 10.3354C16.0019 10.3354 14.6667 8.99978 14.6667 7.33456C14.6667 5.66934 16.0019 4.33371 17.6667 4.33371ZM8.25 10.002C8.18529 10.0101 8.12212 10.0276 8.0625 10.0541L6 10.971C5.99195 10.7996 5.91817 10.6379 5.79401 10.5196C5.66985 10.4012 5.50486 10.3352 5.33334 10.3354H0.666673C0.645851 10.3344 0.624995 10.3344 0.604173 10.3354C0.438413 10.351 0.284497 10.4281 0.172693 10.5515C0.0608887 10.6749 -0.000711701 10.8357 6.20501e-06 11.0023V19.0045C2.38829e-05 19.1814 0.0702674 19.351 0.195288 19.476C0.320308 19.6011 0.489867 19.6714 0.666673 19.6714H5.33334C5.51014 19.6714 5.6797 19.6011 5.80472 19.476C5.92974 19.351 5.99999 19.1814 6 19.0045V18.3377H6.55209L13.7708 20.9634C13.8627 20.9964 13.9607 21.0089 14.0579 20.9999C14.1551 20.9909 14.2491 20.9607 14.3333 20.9113L23.1979 15.7536C23.2049 15.7503 23.2119 15.7468 23.2188 15.7432C23.6884 15.4483 24 14.9271 24 14.3365C24 13.4237 23.2459 12.6694 22.3333 12.6694C22.1993 12.6694 22.0728 12.6814 21.9479 12.7111C21.9444 12.7111 21.941 12.7111 21.9375 12.7111C21.845 12.7334 21.8793 12.7272 21.8646 12.7319C21.8499 12.7369 21.8317 12.7461 21.8125 12.7528C21.7742 12.7664 21.7296 12.7821 21.6667 12.8049C21.5408 12.8505 21.3626 12.9168 21.1563 12.9924C20.7436 13.1436 20.1958 13.3457 19.6563 13.5446C18.8601 13.8382 18.4322 13.9955 18.0729 14.1281C18 14.0127 17.9164 13.9029 17.8229 13.8156C17.5452 13.556 17.2208 13.4204 16.9063 13.3258V13.3154L16.8438 13.2946L8.57292 10.0437C8.47038 10.0033 8.35943 9.98896 8.25 10.002ZM8.35417 11.3878L16.4167 14.5553C16.4371 14.5633 16.458 14.5703 16.4792 14.5762C16.6844 14.634 16.8469 14.7193 16.9167 14.7846C16.9865 14.8498 17 14.8709 17 15.0034C17 15.1996 16.8629 15.3368 16.6667 15.3368H13.4792L10.25 14.0448C10.0858 13.9795 9.90246 13.9818 9.74002 14.0514C9.57758 14.1209 9.44928 14.252 9.38318 14.4159C9.31709 14.5798 9.31857 14.7632 9.38731 14.926C9.45605 15.0889 9.58646 15.2178 9.75 15.2847L13.0833 16.6184C13.1625 16.6517 13.2474 16.6694 13.3333 16.6705H16.6667C17.4109 16.6705 18.04 16.1636 18.25 15.4827C18.4716 15.4008 19.1835 15.1422 20.125 14.795C20.6641 14.5962 21.2036 14.3934 21.6146 14.2428C21.8201 14.1674 21.9917 14.1101 22.1146 14.0656C22.1721 14.045 22.2173 14.0252 22.25 14.0135H22.2604C22.2833 14.0089 22.3088 14.0031 22.3333 14.0031C22.5253 14.0031 22.6667 14.1444 22.6667 14.3365C22.6667 14.4608 22.6045 14.5588 22.5104 14.6179L13.9375 19.5984L6.89584 17.0352C6.82185 17.0115 6.7443 17.0009 6.66667 17.004H6V12.4297L8.35417 11.3878ZM1.33334 11.6691H4.66667V18.3377H1.33334V11.6691Z" fill="white"/>
</g>
</g>
</svg>
