<svg width="24" height="24" viewBox="0 0 24 24" fill="none" xmlns="http://www.w3.org/2000/svg">
<g id="Frame 8978" clip-path="url(#clip0_472_1938)">
<g id="Group">
<g id="Group_2">
<g id="Group_3">
<path id="Vector" d="M12 24C5.37258 24 0 18.6274 0 12C0 5.37258 5.37258 0 12 0C18.6274 0 24 5.37258 24 12C24 18.6274 18.6274 24 12 24ZM12 22C17.5228 22 22 17.5228 22 12C22 6.47715 17.5228 2 12 2C6.47715 2 2 6.47715 2 12C2 17.5228 6.47715 22 12 22ZM10.3787 14.0355L16.7409 7.67332C17.1324 7.28183 17.7636 7.27833 18.1569 7.67157C18.5474 8.0621 18.5468 8.69583 18.1551 9.08753L11.0875 16.1551L11.0867 16.156L11.0858 16.1569C10.891 16.3516 10.6353 16.4487 10.3791 16.4503C10.1236 16.4506 9.8679 16.3532 9.67157 16.1569L9.67007 16.1553L9.66856 16.1538L6.84616 13.3314C6.45397 12.9393 6.4499 12.3075 6.84315 11.9142C7.23367 11.5237 7.86914 11.526 8.26038 11.9172L10.3787 14.0355Z" fill="#238800"/>
</g>
</g>
</g>
</g>
<defs>
<clipPath id="clip0_472_1938">
<rect width="24" height="24" fill="white"/>
</clipPath>
</defs>
</svg>
