<svg width="24" height="24" viewBox="0 0 24 24" fill="none" xmlns="http://www.w3.org/2000/svg">
<g id="Group">
<g id="Group_2">
<g id="Group_3">
<path id="Vector" d="M13.4142 12L16.5973 15.183C16.9872 15.573 16.9894 16.2029 16.5962 16.5962C16.2057 16.9867 15.5727 16.9869 15.183 16.5973L12 13.4142L8.81696 16.5973C8.42702 16.9872 7.79705 16.9894 7.40381 16.5962C7.01328 16.2057 7.01312 15.5727 7.40275 15.183L10.5858 12L7.40275 8.81696C7.01281 8.42702 7.01056 7.79705 7.40381 7.40381C7.79433 7.01328 8.42734 7.01312 8.81696 7.40275L12 10.5858L15.183 7.40275C15.573 7.01281 16.2029 7.01056 16.5962 7.40381C16.9867 7.79433 16.9869 8.42734 16.5973 8.81696L13.4142 12ZM12 24C5.37258 24 0 18.6274 0 12C0 5.37258 5.37258 0 12 0C18.6274 0 24 5.37258 24 12C24 18.6274 18.6274 24 12 24ZM12 22C17.5228 22 22 17.5228 22 12C22 6.47715 17.5228 2 12 2C6.47715 2 2 6.47715 2 12C2 17.5228 6.47715 22 12 22Z" fill="#F89993"/>
</g>
</g>
</g>
</svg>
