<svg width="10" height="6" viewBox="0 0 10 6" fill="none" xmlns="http://www.w3.org/2000/svg">
<path fill-rule="evenodd" clip-rule="evenodd" d="M5.2369 1.21956L9.36226 0.0234375L8.33545 4.19416L7.05452 2.96447L4.98828 5.11679C4.91814 5.18986 4.82123 5.23117 4.71994 5.23117C4.61865 5.23117 4.52175 5.18986 4.4516 5.11679L2.93444 3.53641L0.703067 5.86076C0.560794 6.00896 0.325318 6.01376 0.177117 5.87149C0.0289156 5.72922 0.02411 5.49374 0.166383 5.34554L2.66609 2.74167C2.73624 2.66861 2.83315 2.6273 2.93444 2.6273C3.03572 2.6273 3.13263 2.66861 3.20278 2.74167L4.71994 4.32205L6.51783 2.44925L5.2369 1.21956Z" fill="#489F57"/>
</svg>
