<svg width="22" height="22" viewBox="0 0 22 22" fill="none" xmlns="http://www.w3.org/2000/svg">
<path id="layer1" d="M18.3899 8.66028L20.9344 11.2568C20.9465 11.2691 20.9549 11.2849 20.9584 11.3023C20.9619 11.3196 20.9604 11.3377 20.9541 11.3541C20.9478 11.3706 20.9369 11.3847 20.923 11.3946C20.9091 11.4045 20.8926 11.4097 20.8758 11.4097H18.3899V21.3699H13.6747V14.9676H8.28586V21.3699H3.57064V11.4108H1.08437C1.06757 11.4108 1.05115 11.4055 1.03721 11.3956C1.02327 11.3857 1.01245 11.3717 1.00615 11.3552C0.999846 11.3388 0.998347 11.3207 1.00184 11.3034C1.00534 11.286 1.01367 11.2701 1.02577 11.2578L10.9803 1.09595L15.3587 5.56583V3.58573H18.3899V8.66028Z" stroke="white" stroke-miterlimit="10" stroke-linecap="round" stroke-linejoin="round"/>
</svg>
