<svg width="24" height="25" viewBox="0 0 24 25" fill="none" xmlns="http://www.w3.org/2000/svg">
<g id="upload 1">
<path id="Vector" d="M8.71 8.05815L11 5.75815V15.3481C11 15.6134 11.1054 15.8677 11.2929 16.0553C11.4804 16.2428 11.7348 16.3481 12 16.3481C12.2652 16.3481 12.5196 16.2428 12.7071 16.0553C12.8946 15.8677 13 15.6134 13 15.3481V5.75815L15.29 8.05815C15.383 8.15188 15.4936 8.22627 15.6154 8.27704C15.7373 8.32781 15.868 8.35395 16 8.35395C16.132 8.35395 16.2627 8.32781 16.3846 8.27704C16.5064 8.22627 16.617 8.15188 16.71 8.05815C16.8037 7.96518 16.8781 7.85458 16.9289 7.73272C16.9797 7.61087 17.0058 7.48016 17.0058 7.34815C17.0058 7.21614 16.9797 7.08543 16.9289 6.96357C16.8781 6.84171 16.8037 6.73111 16.71 6.63815L12.71 2.63815C12.6149 2.54711 12.5028 2.47574 12.38 2.42815C12.1365 2.32813 11.8635 2.32813 11.62 2.42815C11.4972 2.47574 11.3851 2.54711 11.29 2.63815L7.29 6.63815C7.19676 6.73139 7.1228 6.84208 7.07234 6.9639C7.02188 7.08572 6.99591 7.21629 6.99591 7.34815C6.99591 7.48001 7.02188 7.61058 7.07234 7.7324C7.1228 7.85422 7.19676 7.96491 7.29 8.05815C7.38324 8.15139 7.49393 8.22535 7.61575 8.27581C7.73757 8.32627 7.86814 8.35224 8 8.35224C8.13186 8.35224 8.26243 8.32627 8.38425 8.27581C8.50607 8.22535 8.61676 8.15139 8.71 8.05815ZM21 12.3481C20.7348 12.3481 20.4804 12.4535 20.2929 12.641C20.1054 12.8286 20 13.0829 20 13.3481V19.3481C20 19.6134 19.8946 19.8677 19.7071 20.0553C19.5196 20.2428 19.2652 20.3481 19 20.3481H5C4.73478 20.3481 4.48043 20.2428 4.29289 20.0553C4.10536 19.8677 4 19.6134 4 19.3481V13.3481C4 13.0829 3.89464 12.8286 3.70711 12.641C3.51957 12.4535 3.26522 12.3481 3 12.3481C2.73478 12.3481 2.48043 12.4535 2.29289 12.641C2.10536 12.8286 2 13.0829 2 13.3481V19.3481C2 20.1438 2.31607 20.9069 2.87868 21.4695C3.44129 22.0321 4.20435 22.3481 5 22.3481H19C19.7956 22.3481 20.5587 22.0321 21.1213 21.4695C21.6839 20.9069 22 20.1438 22 19.3481V13.3481C22 13.0829 21.8946 12.8286 21.7071 12.641C21.5196 12.4535 21.2652 12.3481 21 12.3481Z" fill="#8D8D8D"/>
</g>
</svg>
